<svg width="48" height="48" viewBox="0 0 48 48" fill="none" xmlns="http://www.w3.org/2000/svg">
<g clip-path="url(#clip0_208_5)">
<path d="M14.2662 13.1201L14.0693 13.5315L13.6416 13.3731C11.0757 12.4228 8.31138 13.2009 6.59309 14.9099C4.89704 16.5968 4.22226 19.1855 5.82139 21.948L6.05968 22.3597L5.66043 22.6182C4.72577 23.2234 3.5176 24.3086 2.90177 25.7647C2.30062 27.186 2.23752 29.0179 3.67481 31.2262L3.25576 31.4989L3.67481 31.2262C3.79699 31.4139 4.0211 31.6664 4.33678 32.019L4.34235 32.0252C4.70194 32.4269 5.14629 32.9232 5.55768 33.4919C6.87494 35.3127 8.35545 37.8824 9.71803 41.1081L13.3914 48.5H13.4194H13.4524H13.4858H13.5196H13.5538H13.5883H13.6232H13.6585H13.6941H13.7302H13.7665H13.8033H13.8404H13.8779H13.9157H13.9539H13.9925H14.0314H14.0707H14.1103H14.1503H14.1906H14.2313H14.2723H14.3137H14.3555H14.3975H14.4399H14.4827H14.5258H14.5692H14.613H14.6571H14.7015H14.7463H14.7914H14.8368H14.8826H14.9287H14.9751H15.0218H15.0689H15.1163H15.164H15.212H15.2603H15.309H15.3579H15.4072H15.4568H15.5067H15.5569H15.6074H15.6582H15.7093H15.7607H15.8124H15.8644H15.9168H15.9694H16.0223H16.0755H16.129H16.1827H16.2368H16.2911H16.3458H16.4007H16.4559H16.5114H16.5672H16.6232H16.6795H16.7361H16.793H16.8502H16.9076H16.9653H17.0232H17.0814H17.1399H17.1987H17.2577H17.317H17.3765H17.4363H17.4963H17.5566H17.6172H17.678H17.7391H17.8004H17.8619H17.9237H17.9858H18.0481H18.1106H18.1734H18.2364H18.2996H18.3631H18.4268H18.4908H18.555H18.6194H18.684H18.7489H18.814H18.8793H18.9448H19.0106H19.0766H19.1428H19.2092H19.2758H19.3427H19.4097H19.477H19.5445H19.6122H19.6801H19.7482H19.8165H19.885H19.9537H20.0226H20.0917H20.161H20.2305H20.3002H20.3701H20.4402H20.5104H20.5809H20.6515H20.7223H20.7933H20.8645H20.9359H21.0074H21.0792H21.1511H21.2231H21.2954H21.3678H21.4404H21.5132H21.5861H21.6592H21.7324H21.8058H21.8794H21.9532H22.0271H22.1011H22.1753H22.2497H22.3242H22.3989H22.4737H22.5487H22.6238H22.699H22.7744H22.85H22.9257H23.0015H23.0774H23.1535H23.2298H23.3061H23.3826H23.4593H23.536H23.6129H23.6899H23.7671H23.8443H23.9217H23.9992H24.0768H24.1546H24.2324H24.3104H24.3885H24.4667H24.545H24.6234H24.7019H24.7806H24.8593H24.9381H25.0171H25.0961H25.1752H25.2545H25.3338H25.4132H25.4927H25.5723H25.652H25.7318H25.8117H25.8916H25.9717H26.0518H26.132H26.2123H26.2926H26.3731H26.4536H26.5342H26.6148H26.6955H26.7763H26.8572H26.9381H27.0191H27.1002H27.1813H27.2625H27.3437H27.425H27.5064H27.5878H27.6692H27.7507H27.8323H27.9139H27.9956H28.0773H28.159H28.2408H28.3227H28.4045H28.4864H28.5684H28.6504H28.7324H28.8144H28.8965H28.9786H29.0608H29.1429H29.2251H29.3073H29.3896H29.4718H29.5541H29.6364H29.7187H29.8011H29.8834H29.9658H30.0481H30.1305H30.2129H30.2953H30.3777H30.4601H30.5424H30.6248H30.7072H30.7896H30.872H30.9544H31.0368H31.1192H31.2015H31.2839H31.3662H31.4485H31.5308H31.6131H31.6954H31.7776H31.8599H31.9421H32.0243H32.1064H32.1885H32.2706H32.3527H32.4348H32.5168H32.5987H32.6807H32.7626H32.8444H32.9262H33.008H33.0897H33.1714H33.2531H33.3347H33.4162H33.4977H33.5791H33.6605H33.7418H33.8231H33.9043H33.9855H34.0666H34.1476H34.2286H34.3095H34.3903H34.4711H34.5518H34.6324H34.713H34.7935H34.8739H34.9542H35.0344H35.1146H35.1947H35.2747H35.3546H35.4345H35.5142H35.5939H35.6734H35.7529H35.8323H35.9116H35.9908H36.0699H36.1489H36.2278H36.3065H36.3852H36.4638H36.5423H36.6207H36.6989H36.7771H36.8551H36.933H37.0109H37.0886H37.1661H37.2436H37.3209H37.3981H37.4752H37.5522H37.629H37.7057H37.7823H37.8587H37.9351H38.0112H38.0873H38.1632H38.239H38.3146H38.3901H38.4654H38.5406H38.6157H38.6906H38.7653H38.8399H38.9144H38.9887H39.0628H39.1368H39.2107H39.2843H39.3579H39.4312H39.5044H39.5774H39.6503H39.723H39.7955H39.8678H39.94H40.012H40.0839H40.1555H40.227H40.2983H40.3694H40.4403H40.5111H40.5816H40.652H40.7222H40.7922H40.862H40.9316H41.001H41.0703H41.1393H41.2081H41.2767H41.3452H41.4134H41.4814H41.5492H41.6168H41.6842H41.7514H41.8184H41.8852H41.9517H42.018H42.0841H42.15H42.2157H42.2812H42.3464H42.4114H42.4762H42.5407H42.6051H42.6691H42.733H42.7966H42.86H42.9232H42.9861H43.0488H43.1112H43.1734H43.2353H43.297H43.3585H43.4197H43.4807H43.5414H43.6018H43.662H43.722H43.7816H43.8411H43.9002H43.9591H44.0178H44.0762H44.1343H44.1921H44.2497H44.307H44.3641H44.4208H44.4773H44.5335H44.5895H44.6451H44.7005H44.7556H44.8104H44.8649H44.9192H44.9731H45.0268H45.0801H45.1332H45.186H45.2385H45.2907H45.3426H45.3942H45.4455H45.4965H45.5472H45.5975H45.6476H45.6974H45.7468H45.796H45.8448H45.8933H45.9416H45.9894H46.037H46.0843H46.1312H46.1778H46.1932L37.2155 30.4344L37.2086 30.4206L37.2026 30.4063C35.8384 27.174 35.0355 24.3327 34.6596 22.1389C34.5423 21.4541 34.5011 20.7992 34.4678 20.27L34.4672 20.2616C34.438 19.7964 34.4157 19.4669 34.3677 19.252C33.7988 16.7087 32.4251 15.429 30.9496 14.8076C29.4433 14.1733 27.7839 14.2077 26.6746 14.4015L26.2291 14.4794L26.1071 14.0439C25.2517 10.9907 22.8832 9.57386 20.426 9.5028C17.943 9.431 15.4081 10.7347 14.2662 13.1201ZM13.1606 39.4147C12.3289 37.4441 13.2269 35.2285 15.1345 34.2946C14.5323 31.0516 16.344 27.7507 19.6143 26.4719C22.894 25.1895 26.5836 26.3529 28.4854 29.0968C30.4651 28.6041 32.5805 29.5806 33.3818 31.4793C34.2592 33.5582 33.2117 35.9096 31.0845 36.7414C30.2443 37.0699 29.3575 37.1146 28.5393 36.9224C27.746 38.1005 26.5843 39.0617 25.1376 39.6274C23.6436 40.2116 22.0661 40.2878 20.6126 39.9403C20.162 40.6798 19.4658 41.2845 18.5845 41.6291C16.466 42.4575 14.0335 41.4831 13.1606 39.4147ZM22.3512 20.9732C20.3276 21.9163 17.8595 20.7069 16.7583 18.5178C15.6555 16.3254 16.1985 13.6837 18.2395 12.7325C20.2631 11.7894 22.7312 12.9989 23.8323 15.188C24.9351 17.3803 24.3921 20.0221 22.3512 20.9732ZM29.7719 26.0926C27.5822 26.5748 25.452 24.8632 24.8867 22.4853C24.3209 20.1052 25.4686 17.657 27.6685 17.1725C29.8582 16.6902 31.9883 18.4018 32.5536 20.7797C33.1194 23.1598 31.9717 25.6081 29.7719 26.0926ZM12.9149 27.1391C14.2287 29.2166 13.9545 31.899 12.0131 33.0364C10.0907 34.1628 7.51579 33.1847 6.20393 31.1103C4.89009 29.0328 5.16432 26.3504 7.10567 25.213C9.02812 24.0866 11.603 25.0647 12.9149 27.1391ZM15.8654 18.8385C16.6647 21.1536 15.7673 23.7003 13.6217 24.3866C11.4898 25.0685 9.20189 23.5616 8.40356 21.2493C7.60426 18.9342 8.50162 16.3875 10.6472 15.7012C12.7792 15.0192 15.0671 16.5261 15.8654 18.8385Z" fill="white"/>
<path d="M14.2662 13.1201L14.0693 13.5315L13.6416 13.3731C11.0757 12.4228 8.31138 13.2009 6.59309 14.9099C4.89704 16.5968 4.22226 19.1855 5.82139 21.948L6.05968 22.3597L5.66043 22.6182C4.72577 23.2234 3.5176 24.3086 2.90177 25.7647C2.30062 27.186 2.23752 29.0179 3.67481 31.2262L3.25576 31.4989L3.67481 31.2262C3.79699 31.4139 4.0211 31.6664 4.33678 32.019L4.34235 32.0252C4.70194 32.4269 5.14629 32.9232 5.55768 33.4919C6.87494 35.3127 8.35545 37.8824 9.71803 41.1081L13.3914 48.5H13.4194H13.4524H13.4858H13.5196H13.5538H13.5883H13.6232H13.6585H13.6941H13.7302H13.7665H13.8033H13.8404H13.8779H13.9157H13.9539H13.9925H14.0314H14.0707H14.1103H14.1503H14.1906H14.2313H14.2723H14.3137H14.3555H14.3975H14.4399H14.4827H14.5258H14.5692H14.613H14.6571H14.7015H14.7463H14.7914H14.8368H14.8826H14.9287H14.9751H15.0218H15.0689H15.1163H15.164H15.212H15.2603H15.309H15.3579H15.4072H15.4568H15.5067H15.5569H15.6074H15.6582H15.7093H15.7607H15.8124H15.8644H15.9168H15.9694H16.0223H16.0755H16.129H16.1827H16.2368H16.2911H16.3458H16.4007H16.4559H16.5114H16.5672H16.6232H16.6795H16.7361H16.793H16.8502H16.9076H16.9653H17.0232H17.0814H17.1399H17.1987H17.2577H17.317H17.3765H17.4363H17.4963H17.5566H17.6172H17.678H17.7391H17.8004H17.8619H17.9237H17.9858H18.0481H18.1106H18.1734H18.2364H18.2996H18.3631H18.4268H18.4908H18.555H18.6194H18.684H18.7489H18.814H18.8793H18.9448H19.0106H19.0766H19.1428H19.2092H19.2758H19.3427H19.4097H19.477H19.5445H19.6122H19.6801H19.7482H19.8165H19.885H19.9537H20.0226H20.0917H20.161H20.2305H20.3002H20.3701H20.4402H20.5104H20.5809H20.6515H20.7223H20.7933H20.8645H20.9359H21.0074H21.0792H21.1511H21.2231H21.2954H21.3678H21.4404H21.5132H21.5861H21.6592H21.7324H21.8058H21.8794H21.9532H22.0271H22.1011H22.1753H22.2497H22.3242H22.3989H22.4737H22.5487H22.6238H22.699H22.7744H22.85H22.9257H23.0015H23.0774H23.1535H23.2298H23.3061H23.3826H23.4593H23.536H23.6129H23.6899H23.7671H23.8443H23.9217H23.9992H24.0768H24.1546H24.2324H24.3104H24.3885H24.4667H24.545H24.6234H24.7019H24.7806H24.8593H24.9381H25.0171H25.0961H25.1752H25.2545H25.3338H25.4132H25.4927H25.5723H25.652H25.7318H25.8117H25.8916H25.9717H26.0518H26.132H26.2123H26.2926H26.3731H26.4536H26.5342H26.6148H26.6955H26.7763H26.8572H26.9381H27.0191H27.1002H27.1813H27.2625H27.3437H27.425H27.5064H27.5878H27.6692H27.7507H27.8323H27.9139H27.9956H28.0773H28.159H28.2408H28.3227H28.4045H28.4864H28.5684H28.6504H28.7324H28.8144H28.8965H28.9786H29.0608H29.1429H29.2251H29.3073H29.3896H29.4718H29.5541H29.6364H29.7187H29.8011H29.8834H29.9658H30.0481H30.1305H30.2129H30.2953H30.3777H30.4601H30.5424H30.6248H30.7072H30.7896H30.872H30.9544H31.0368H31.1192H31.2015H31.2839H31.3662H31.4485H31.5308H31.6131H31.6954H31.7776H31.8599H31.9421H32.0243H32.1064H32.1885H32.2706H32.3527H32.4348H32.5168H32.5987H32.6807H32.7626H32.8444H32.9262H33.008H33.0897H33.1714H33.2531H33.3347H33.4162H33.4977H33.5791H33.6605H33.7418H33.8231H33.9043H33.9855H34.0666H34.1476H34.2286H34.3095H34.3903H34.4711H34.5518H34.6324H34.713H34.7935H34.8739H34.9542H35.0344H35.1146H35.1947H35.2747H35.3546H35.4345H35.5142H35.5939H35.6734H35.7529H35.8323H35.9116H35.9908H36.0699H36.1489H36.2278H36.3065H36.3852H36.4638H36.5423H36.6207H36.6989H36.7771H36.8551H36.933H37.0109H37.0886H37.1661H37.2436H37.3209H37.3981H37.4752H37.5522H37.629H37.7057H37.7823H37.8587H37.9351H38.0112H38.0873H38.1632H38.239H38.3146H38.3901H38.4654H38.5406H38.6157H38.6906H38.7653H38.8399H38.9144H38.9887H39.0628H39.1368H39.2107H39.2843H39.3579H39.4312H39.5044H39.5774H39.6503H39.723H39.7955H39.8678H39.94H40.012H40.0839H40.1555H40.227H40.2983H40.3694H40.4403H40.5111H40.5816H40.652H40.7222H40.7922H40.862H40.9316H41.001H41.0703H41.1393H41.2081H41.2767H41.3452H41.4134H41.4814H41.5492H41.6168H41.6842H41.7514H41.8184H41.8852H41.9517H42.018H42.0841H42.15H42.2157H42.2812H42.3464H42.4114H42.4762H42.5407H42.6051H42.6691H42.733H42.7966H42.86H42.9232H42.9861H43.0488H43.1112H43.1734H43.2353H43.297H43.3585H43.4197H43.4807H43.5414H43.6018H43.662H43.722H43.7816H43.8411H43.9002H43.9591H44.0178H44.0762H44.1343H44.1921H44.2497H44.307H44.3641H44.4208H44.4773H44.5335H44.5895H44.6451H44.7005H44.7556H44.8104H44.8649H44.9192H44.9731H45.0268H45.0801H45.1332H45.186H45.2385H45.2907H45.3426H45.3942H45.4455H45.4965H45.5472H45.5975H45.6476H45.6974H45.7468H45.796H45.8448H45.8933H45.9416H45.9894H46.037H46.0843H46.1312H46.1778H46.1932L37.2155 30.4344L37.2086 30.4206L37.2026 30.4063C35.8384 27.174 35.0355 24.3327 34.6596 22.1389C34.5423 21.4541 34.5011 20.7992 34.4678 20.27L34.4672 20.2616C34.438 19.7964 34.4157 19.4669 34.3677 19.252C33.7988 16.7087 32.4251 15.429 30.9496 14.8076C29.4433 14.1733 27.7839 14.2077 26.6746 14.4015L26.2291 14.4794L26.1071 14.0439C25.2517 10.9907 22.8832 9.57386 20.426 9.5028C17.943 9.431 15.4081 10.7347 14.2662 13.1201ZM13.1606 39.4147C12.3289 37.4441 13.2269 35.2285 15.1345 34.2946C14.5323 31.0516 16.344 27.7507 19.6143 26.4719C22.894 25.1895 26.5836 26.3529 28.4854 29.0968C30.4651 28.6041 32.5805 29.5806 33.3818 31.4793C34.2592 33.5582 33.2117 35.9096 31.0845 36.7414C30.2443 37.0699 29.3575 37.1146 28.5393 36.9224C27.746 38.1005 26.5843 39.0617 25.1376 39.6274C23.6436 40.2116 22.0661 40.2878 20.6126 39.9403C20.162 40.6798 19.4658 41.2845 18.5845 41.6291C16.466 42.4575 14.0335 41.4831 13.1606 39.4147ZM22.3512 20.9732C20.3276 21.9163 17.8595 20.7069 16.7583 18.5178C15.6555 16.3254 16.1985 13.6837 18.2395 12.7325C20.2631 11.7894 22.7312 12.9989 23.8323 15.188C24.9351 17.3803 24.3921 20.0221 22.3512 20.9732ZM29.7719 26.0926C27.5822 26.5748 25.452 24.8632 24.8867 22.4853C24.3209 20.1052 25.4686 17.657 27.6685 17.1725C29.8582 16.6902 31.9883 18.4018 32.5536 20.7797C33.1194 23.1598 31.9717 25.6081 29.7719 26.0926ZM12.9149 27.1391C14.2287 29.2166 13.9545 31.899 12.0131 33.0364C10.0907 34.1628 7.51579 33.1847 6.20393 31.1103C4.89009 29.0328 5.16432 26.3504 7.10567 25.213C9.02812 24.0866 11.603 25.0647 12.9149 27.1391ZM15.8654 18.8385C16.6647 21.1536 15.7673 23.7003 13.6217 24.3866C11.4898 25.0685 9.20189 23.5616 8.40356 21.2493C7.60426 18.9342 8.50162 16.3875 10.6472 15.7012C12.7792 15.0192 15.0671 16.5261 15.8654 18.8385Z" fill="url(#paint0_linear_208_5)"/>
<path d="M14.2662 13.1201L14.0693 13.5315L13.6416 13.3731C11.0757 12.4228 8.31138 13.2009 6.59309 14.9099C4.89704 16.5968 4.22226 19.1855 5.82139 21.948L6.05968 22.3597L5.66043 22.6182C4.72577 23.2234 3.5176 24.3086 2.90177 25.7647C2.30062 27.186 2.23752 29.0179 3.67481 31.2262L3.25576 31.4989L3.67481 31.2262C3.79699 31.4139 4.0211 31.6664 4.33678 32.019L4.34235 32.0252C4.70194 32.4269 5.14629 32.9232 5.55768 33.4919C6.87494 35.3127 8.35545 37.8824 9.71803 41.1081L13.3914 48.5H13.4194H13.4524H13.4858H13.5196H13.5538H13.5883H13.6232H13.6585H13.6941H13.7302H13.7665H13.8033H13.8404H13.8779H13.9157H13.9539H13.9925H14.0314H14.0707H14.1103H14.1503H14.1906H14.2313H14.2723H14.3137H14.3555H14.3975H14.4399H14.4827H14.5258H14.5692H14.613H14.6571H14.7015H14.7463H14.7914H14.8368H14.8826H14.9287H14.9751H15.0218H15.0689H15.1163H15.164H15.212H15.2603H15.309H15.3579H15.4072H15.4568H15.5067H15.5569H15.6074H15.6582H15.7093H15.7607H15.8124H15.8644H15.9168H15.9694H16.0223H16.0755H16.129H16.1827H16.2368H16.2911H16.3458H16.4007H16.4559H16.5114H16.5672H16.6232H16.6795H16.7361H16.793H16.8502H16.9076H16.9653H17.0232H17.0814H17.1399H17.1987H17.2577H17.317H17.3765H17.4363H17.4963H17.5566H17.6172H17.678H17.7391H17.8004H17.8619H17.9237H17.9858H18.0481H18.1106H18.1734H18.2364H18.2996H18.3631H18.4268H18.4908H18.555H18.6194H18.684H18.7489H18.814H18.8793H18.9448H19.0106H19.0766H19.1428H19.2092H19.2758H19.3427H19.4097H19.477H19.5445H19.6122H19.6801H19.7482H19.8165H19.885H19.9537H20.0226H20.0917H20.161H20.2305H20.3002H20.3701H20.4402H20.5104H20.5809H20.6515H20.7223H20.7933H20.8645H20.9359H21.0074H21.0792H21.1511H21.2231H21.2954H21.3678H21.4404H21.5132H21.5861H21.6592H21.7324H21.8058H21.8794H21.9532H22.0271H22.1011H22.1753H22.2497H22.3242H22.3989H22.4737H22.5487H22.6238H22.699H22.7744H22.85H22.9257H23.0015H23.0774H23.1535H23.2298H23.3061H23.3826H23.4593H23.536H23.6129H23.6899H23.7671H23.8443H23.9217H23.9992H24.0768H24.1546H24.2324H24.3104H24.3885H24.4667H24.545H24.6234H24.7019H24.7806H24.8593H24.9381H25.0171H25.0961H25.1752H25.2545H25.3338H25.4132H25.4927H25.5723H25.652H25.7318H25.8117H25.8916H25.9717H26.0518H26.132H26.2123H26.2926H26.3731H26.4536H26.5342H26.6148H26.6955H26.7763H26.8572H26.9381H27.0191H27.1002H27.1813H27.2625H27.3437H27.425H27.5064H27.5878H27.6692H27.7507H27.8323H27.9139H27.9956H28.0773H28.159H28.2408H28.3227H28.4045H28.4864H28.5684H28.6504H28.7324H28.8144H28.8965H28.9786H29.0608H29.1429H29.2251H29.3073H29.3896H29.4718H29.5541H29.6364H29.7187H29.8011H29.8834H29.9658H30.0481H30.1305H30.2129H30.2953H30.3777H30.4601H30.5424H30.6248H30.7072H30.7896H30.872H30.9544H31.0368H31.1192H31.2015H31.2839H31.3662H31.4485H31.5308H31.6131H31.6954H31.7776H31.8599H31.9421H32.0243H32.1064H32.1885H32.2706H32.3527H32.4348H32.5168H32.5987H32.6807H32.7626H32.8444H32.9262H33.008H33.0897H33.1714H33.2531H33.3347H33.4162H33.4977H33.5791H33.6605H33.7418H33.8231H33.9043H33.9855H34.0666H34.1476H34.2286H34.3095H34.3903H34.4711H34.5518H34.6324H34.713H34.7935H34.8739H34.9542H35.0344H35.1146H35.1947H35.2747H35.3546H35.4345H35.5142H35.5939H35.6734H35.7529H35.8323H35.9116H35.9908H36.0699H36.1489H36.2278H36.3065H36.3852H36.4638H36.5423H36.6207H36.6989H36.7771H36.8551H36.933H37.0109H37.0886H37.1661H37.2436H37.3209H37.3981H37.4752H37.5522H37.629H37.7057H37.7823H37.8587H37.9351H38.0112H38.0873H38.1632H38.239H38.3146H38.3901H38.4654H38.5406H38.6157H38.6906H38.7653H38.8399H38.9144H38.9887H39.0628H39.1368H39.2107H39.2843H39.3579H39.4312H39.5044H39.5774H39.6503H39.723H39.7955H39.8678H39.94H40.012H40.0839H40.1555H40.227H40.2983H40.3694H40.4403H40.5111H40.5816H40.652H40.7222H40.7922H40.862H40.9316H41.001H41.0703H41.1393H41.2081H41.2767H41.3452H41.4134H41.4814H41.5492H41.6168H41.6842H41.7514H41.8184H41.8852H41.9517H42.018H42.0841H42.15H42.2157H42.2812H42.3464H42.4114H42.4762H42.5407H42.6051H42.6691H42.733H42.7966H42.86H42.9232H42.9861H43.0488H43.1112H43.1734H43.2353H43.297H43.3585H43.4197H43.4807H43.5414H43.6018H43.662H43.722H43.7816H43.8411H43.9002H43.9591H44.0178H44.0762H44.1343H44.1921H44.2497H44.307H44.3641H44.4208H44.4773H44.5335H44.5895H44.6451H44.7005H44.7556H44.8104H44.8649H44.9192H44.9731H45.0268H45.0801H45.1332H45.186H45.2385H45.2907H45.3426H45.3942H45.4455H45.4965H45.5472H45.5975H45.6476H45.6974H45.7468H45.796H45.8448H45.8933H45.9416H45.9894H46.037H46.0843H46.1312H46.1778H46.1932L37.2155 30.4344L37.2086 30.4206L37.2026 30.4063C35.8384 27.174 35.0355 24.3327 34.6596 22.1389C34.5423 21.4541 34.5011 20.7992 34.4678 20.27L34.4672 20.2616C34.438 19.7964 34.4157 19.4669 34.3677 19.252C33.7988 16.7087 32.4251 15.429 30.9496 14.8076C29.4433 14.1733 27.7839 14.2077 26.6746 14.4015L26.2291 14.4794L26.1071 14.0439C25.2517 10.9907 22.8832 9.57386 20.426 9.5028C17.943 9.431 15.4081 10.7347 14.2662 13.1201ZM13.1606 39.4147C12.3289 37.4441 13.2269 35.2285 15.1345 34.2946C14.5323 31.0516 16.344 27.7507 19.6143 26.4719C22.894 25.1895 26.5836 26.3529 28.4854 29.0968C30.4651 28.6041 32.5805 29.5806 33.3818 31.4793C34.2592 33.5582 33.2117 35.9096 31.0845 36.7414C30.2443 37.0699 29.3575 37.1146 28.5393 36.9224C27.746 38.1005 26.5843 39.0617 25.1376 39.6274C23.6436 40.2116 22.0661 40.2878 20.6126 39.9403C20.162 40.6798 19.4658 41.2845 18.5845 41.6291C16.466 42.4575 14.0335 41.4831 13.1606 39.4147ZM22.3512 20.9732C20.3276 21.9163 17.8595 20.7069 16.7583 18.5178C15.6555 16.3254 16.1985 13.6837 18.2395 12.7325C20.2631 11.7894 22.7312 12.9989 23.8323 15.188C24.9351 17.3803 24.3921 20.0221 22.3512 20.9732ZM29.7719 26.0926C27.5822 26.5748 25.452 24.8632 24.8867 22.4853C24.3209 20.1052 25.4686 17.657 27.6685 17.1725C29.8582 16.6902 31.9883 18.4018 32.5536 20.7797C33.1194 23.1598 31.9717 25.6081 29.7719 26.0926ZM12.9149 27.1391C14.2287 29.2166 13.9545 31.899 12.0131 33.0364C10.0907 34.1628 7.51579 33.1847 6.20393 31.1103C4.89009 29.0328 5.16432 26.3504 7.10567 25.213C9.02812 24.0866 11.603 25.0647 12.9149 27.1391ZM15.8654 18.8385C16.6647 21.1536 15.7673 23.7003 13.6217 24.3866C11.4898 25.0685 9.20189 23.5616 8.40356 21.2493C7.60426 18.9342 8.50162 16.3875 10.6472 15.7012C12.7792 15.0192 15.0671 16.5261 15.8654 18.8385Z" stroke="url(#paint1_linear_208_5)"/>
</g>
<defs>
<linearGradient id="paint0_linear_208_5" x1="24.5" y1="9" x2="24.5" y2="49" gradientUnits="userSpaceOnUse">
<stop stop-color="#F4EDE8"/>
<stop offset="1" stop-color="#E4D6CC"/>
</linearGradient>
<linearGradient id="paint1_linear_208_5" x1="24.4532" y1="49.0542" x2="24.4532" y2="16.3202" gradientUnits="userSpaceOnUse">
<stop stop-color="#7E361E"/>
<stop offset="1" stop-color="#B0978C"/>
</linearGradient>
<clipPath id="clip0_208_5">
<rect width="48" height="48" fill="white"/>
</clipPath>
</defs>
</svg>
